<svg xmlns="http://www.w3.org/2000/svg" viewBox="0 0 433.24 114.47"><defs><style>.cls-1{fill:#ccc;}.cls-2{fill:#ed1c24;}.cls-3{fill:#f7931e;}.cls-4{fill:#fcee21;}.cls-5{font-size:12px;font-family:MyriadPro-Regular, Myriad Pro;}.cls-6{letter-spacing:-0.03em;}.cls-7{letter-spacing:0.01em;}.cls-8{letter-spacing:-0.01em;}.cls-9{letter-spacing:-0.01em;}.cls-10{letter-spacing:0em;}.cls-11{letter-spacing:0em;}.cls-12{letter-spacing:0em;}.cls-13{letter-spacing:-0.01em;}.cls-14{letter-spacing:-0.01em;}.cls-15{letter-spacing:0.05em;}.cls-16{letter-spacing:-0.05em;}.cls-17{letter-spacing:0em;}.cls-18{letter-spacing:0em;}.cls-19{fill:none;stroke:#000;stroke-miterlimit:10;stroke-width:0.5px;}.cls-20{letter-spacing:-0.01em;}</style></defs><g id="Layer_2" data-name="Layer 2"><g id="Layer_1-2" data-name="Layer 1"><rect class="cls-1" x="106.49" y="22.72" width="9.5" height="23.5"/><path d="M115.74,23V46h-9V23h9m.5-.5h-10v24h10v-24Z"/><rect class="cls-1" x="119.49" y="22.72" width="9.5" height="23.5"/><path d="M128.74,23V46h-9V23h9m.5-.5h-10v24h10v-24Z"/><rect class="cls-2" x="132.49" y="22.72" width="9.5" height="23.5"/><path d="M141.74,23V46h-9V23h9m.5-.5h-10v24h10v-24Z"/><rect class="cls-1" x="145.49" y="22.72" width="9.5" height="23.5"/><path d="M154.74,23V46h-9V23h9m.5-.5h-10v24h10v-24Z"/><rect class="cls-1" x="158.49" y="22.72" width="9.5" height="23.5"/><path d="M167.74,23V46h-9V23h9m.5-.5h-10v24h10v-24Z"/><rect class="cls-1" x="171.49" y="22.72" width="9.5" height="23.5"/><path d="M180.74,23V46h-9V23h9m.5-.5h-10v24h10v-24Z"/><rect class="cls-2" x="184.49" y="22.72" width="9.5" height="23.5"/><path d="M193.74,23V46h-9V23h9m.5-.5h-10v24h10v-24Z"/><rect class="cls-2" x="197.49" y="22.72" width="9.5" height="23.5"/><path d="M206.74,23V46h-9V23h9m.5-.5h-10v24h10v-24Z"/><rect class="cls-2" x="210.49" y="22.72" width="9.5" height="23.5"/><path d="M219.74,23V46h-9V23h9m.5-.5h-10v24h10v-24Z"/><rect class="cls-2" x="223.49" y="22.72" width="9.5" height="23.5"/><path d="M232.74,23V46h-9V23h9m.5-.5h-10v24h10v-24Z"/><rect class="cls-1" x="236.49" y="22.72" width="9.5" height="23.5"/><path d="M245.74,23V46h-9V23h9m.5-.5h-10v24h10v-24Z"/><rect class="cls-1" x="249.49" y="22.72" width="9.5" height="23.5"/><path d="M258.74,23V46h-9V23h9m.5-.5h-10v24h10v-24Z"/><rect class="cls-2" x="262.49" y="22.72" width="9.5" height="23.5"/><path d="M271.74,23V46h-9V23h9m.5-.5h-10v24h10v-24Z"/><rect class="cls-1" x="275.49" y="22.72" width="9.5" height="23.5"/><path d="M284.74,23V46h-9V23h9m.5-.5h-10v24h10v-24Z"/><rect class="cls-1" x="288.49" y="22.72" width="9.5" height="23.5"/><path d="M297.74,23V46h-9V23h9m.5-.5h-10v24h10v-24Z"/><rect class="cls-1" x="301.49" y="22.72" width="9.5" height="23.5"/><path d="M310.74,23V46h-9V23h9m.5-.5h-10v24h10v-24Z"/><rect class="cls-1" x="106.49" y="56.72" width="9.5" height="23.5"/><path d="M115.74,57V80h-9V57h9m.5-.5h-10v24h10v-24Z"/><rect class="cls-1" x="119.49" y="56.72" width="9.5" height="23.5"/><path d="M128.74,57V80h-9V57h9m.5-.5h-10v24h10v-24Z"/><rect class="cls-3" x="132.49" y="56.72" width="9.5" height="23.5"/><path d="M141.74,57V80h-9V57h9m.5-.5h-10v24h10v-24Z"/><rect class="cls-1" x="145.49" y="56.72" width="9.5" height="23.5"/><path d="M154.74,57V80h-9V57h9m.5-.5h-10v24h10v-24Z"/><rect class="cls-1" x="158.49" y="56.72" width="9.5" height="23.5"/><path d="M167.74,57V80h-9V57h9m.5-.5h-10v24h10v-24Z"/><rect class="cls-1" x="171.49" y="56.72" width="9.5" height="23.5"/><path d="M180.74,57V80h-9V57h9m.5-.5h-10v24h10v-24Z"/><rect class="cls-3" x="184.49" y="56.72" width="9.5" height="23.5"/><path d="M193.74,57V80h-9V57h9m.5-.5h-10v24h10v-24Z"/><rect class="cls-1" x="197.49" y="56.72" width="9.5" height="23.5"/><path d="M206.74,57V80h-9V57h9m.5-.5h-10v24h10v-24Z"/><rect class="cls-1" x="210.49" y="56.72" width="9.5" height="23.5"/><path d="M219.74,57V80h-9V57h9m.5-.5h-10v24h10v-24Z"/><rect class="cls-1" x="223.49" y="56.72" width="9.5" height="23.5"/><path d="M232.74,57V80h-9V57h9m.5-.5h-10v24h10v-24Z"/><rect class="cls-1" x="236.49" y="56.72" width="9.5" height="23.5"/><path d="M245.74,57V80h-9V57h9m.5-.5h-10v24h10v-24Z"/><rect class="cls-1" x="249.49" y="56.72" width="9.5" height="23.5"/><path d="M258.74,57V80h-9V57h9m.5-.5h-10v24h10v-24Z"/><rect class="cls-3" x="262.49" y="56.72" width="9.5" height="23.5"/><path d="M271.74,57V80h-9V57h9m.5-.5h-10v24h10v-24Z"/><rect class="cls-1" x="275.49" y="56.72" width="9.5" height="23.5"/><path d="M284.74,57V80h-9V57h9m.5-.5h-10v24h10v-24Z"/><rect class="cls-1" x="288.49" y="56.72" width="9.5" height="23.5"/><path d="M297.74,57V80h-9V57h9m.5-.5h-10v24h10v-24Z"/><rect class="cls-1" x="301.49" y="56.72" width="9.5" height="23.5"/><path d="M310.74,57V80h-9V57h9m.5-.5h-10v24h10v-24Z"/><rect class="cls-1" x="106.49" y="90.72" width="9.5" height="23.5"/><path d="M115.74,91v23h-9V91h9m.5-.5h-10v24h10v-24Z"/><rect class="cls-1" x="119.49" y="90.72" width="9.5" height="23.5"/><path d="M128.74,91v23h-9V91h9m.5-.5h-10v24h10v-24Z"/><rect class="cls-1" x="132.49" y="90.72" width="9.5" height="23.5"/><path d="M141.74,91v23h-9V91h9m.5-.5h-10v24h10v-24Z"/><rect class="cls-4" x="145.49" y="90.72" width="9.5" height="23.5"/><path d="M154.74,91v23h-9V91h9m.5-.5h-10v24h10v-24Z"/><rect class="cls-1" x="158.49" y="90.72" width="9.5" height="23.5"/><path d="M167.74,91v23h-9V91h9m.5-.5h-10v24h10v-24Z"/><rect class="cls-1" x="171.49" y="90.72" width="9.5" height="23.5"/><path d="M180.74,91v23h-9V91h9m.5-.5h-10v24h10v-24Z"/><rect class="cls-1" x="184.49" y="90.72" width="9.5" height="23.5"/><path d="M193.74,91v23h-9V91h9m.5-.5h-10v24h10v-24Z"/><rect class="cls-1" x="197.49" y="90.72" width="9.5" height="23.5"/><path d="M206.74,91v23h-9V91h9m.5-.5h-10v24h10v-24Z"/><rect class="cls-1" x="210.49" y="90.72" width="9.5" height="23.5"/><path d="M219.74,91v23h-9V91h9m.5-.5h-10v24h10v-24Z"/><rect class="cls-1" x="223.49" y="90.72" width="9.5" height="23.5"/><path d="M232.74,91v23h-9V91h9m.5-.5h-10v24h10v-24Z"/><rect class="cls-4" x="236.49" y="90.72" width="9.5" height="23.5"/><path d="M245.74,91v23h-9V91h9m.5-.5h-10v24h10v-24Z"/><rect class="cls-1" x="249.49" y="90.72" width="9.5" height="23.5"/><path d="M258.74,91v23h-9V91h9m.5-.5h-10v24h10v-24Z"/><rect class="cls-1" x="262.49" y="90.72" width="9.5" height="23.5"/><path d="M271.74,91v23h-9V91h9m.5-.5h-10v24h10v-24Z"/><rect class="cls-4" x="275.49" y="90.72" width="9.5" height="23.5"/><path d="M284.74,91v23h-9V91h9m.5-.5h-10v24h10v-24Z"/><rect class="cls-1" x="288.49" y="90.72" width="9.5" height="23.5"/><path d="M297.74,91v23h-9V91h9m.5-.5h-10v24h10v-24Z"/><rect class="cls-1" x="301.49" y="90.72" width="9.5" height="23.5"/><path d="M310.74,91v23h-9V91h9m.5-.5h-10v24h10v-24Z"/><text class="cls-5" transform="translate(1.96 36.67)"><tspan class="cls-6">F</tspan><tspan x="5.42" y="0">uncion </tspan><tspan class="cls-7" x="42.67" y="0">I</tspan><tspan class="cls-8" x="45.66" y="0">n</tspan><tspan class="cls-9" x="52.16" y="0">v</tspan><tspan x="57.82" y="0">oc</tspan><tspan class="cls-10" x="69.78" y="0">a</tspan><tspan x="75.52" y="0">tion</tspan></text><text class="cls-5" transform="translate(0 72.79)"><tspan class="cls-11">D</tspan><tspan class="cls-12" x="8.04" y="0">eboun</tspan><tspan class="cls-13" x="40.74" y="0">c</tspan><tspan x="46.04" y="0">e (</tspan><tspan class="cls-14" x="58.01" y="0">L</tspan><tspan class="cls-12" x="63.5" y="0">eading)</tspan></text><text class="cls-5" transform="translate(0.28 107.98)"><tspan class="cls-11">D</tspan><tspan class="cls-12" x="8.04" y="0">eboun</tspan><tspan class="cls-13" x="40.74" y="0">c</tspan><tspan x="46.04" y="0">e </tspan><tspan class="cls-15" x="54.6" y="0">(</tspan><tspan class="cls-16" x="58.58" y="0">T</tspan><tspan class="cls-17" x="64.01" y="0">r</tspan><tspan class="cls-18" x="67.87" y="0">ailing)</tspan></text><line class="cls-19" x1="106.49" y1="14.47" x2="429.71" y2="14.47"/><rect x="106.24" y="12.85" width="0.5" height="3.25"/><polygon points="433.24 14.47 428.27 16.5 429.45 14.47 428.27 12.44 433.24 14.47"/><text class="cls-5" transform="translate(105.53 10.04)"><tspan class="cls-20">T</tspan><tspan x="5.82" y="0">ime</tspan></text><rect class="cls-1" x="314.49" y="22.72" width="9.5" height="23.5"/><path d="M323.74,23V46h-9V23h9m.5-.5h-10v24h10v-24Z"/><rect class="cls-2" x="327.49" y="22.72" width="9.5" height="23.5"/><path d="M336.74,23V46h-9V23h9m.5-.5h-10v24h10v-24Z"/><rect class="cls-2" x="340.49" y="22.72" width="9.5" height="23.5"/><path d="M349.74,23V46h-9V23h9m.5-.5h-10v24h10v-24Z"/><rect class="cls-1" x="353.49" y="22.72" width="9.5" height="23.5"/><path d="M362.74,23V46h-9V23h9m.5-.5h-10v24h10v-24Z"/><rect class="cls-1" x="314.49" y="56.72" width="9.5" height="23.5"/><path d="M323.74,57V80h-9V57h9m.5-.5h-10v24h10v-24Z"/><rect class="cls-3" x="327.49" y="56.72" width="9.5" height="23.5"/><path d="M336.74,57V80h-9V57h9m.5-.5h-10v24h10v-24Z"/><rect class="cls-1" x="340.49" y="56.72" width="9.5" height="23.5"/><path d="M349.74,57V80h-9V57h9m.5-.5h-10v24h10v-24Z"/><rect class="cls-1" x="353.49" y="56.72" width="9.5" height="23.5"/><path d="M362.74,57V80h-9V57h9m.5-.5h-10v24h10v-24Z"/><rect class="cls-1" x="314.49" y="90.72" width="9.5" height="23.5"/><path d="M323.74,91v23h-9V91h9m.5-.5h-10v24h10v-24Z"/><rect class="cls-1" x="327.49" y="90.72" width="9.5" height="23.5"/><path d="M336.74,91v23h-9V91h9m.5-.5h-10v24h10v-24Z"/><rect class="cls-1" x="340.49" y="90.72" width="9.5" height="23.5"/><path d="M349.74,91v23h-9V91h9m.5-.5h-10v24h10v-24Z"/><rect class="cls-4" x="353.49" y="90.72" width="9.5" height="23.5"/><path d="M362.74,91v23h-9V91h9m.5-.5h-10v24h10v-24Z"/><rect class="cls-1" x="366.49" y="22.72" width="9.5" height="23.5"/><path d="M375.74,23V46h-9V23h9m.5-.5h-10v24h10v-24Z"/><rect class="cls-1" x="379.49" y="22.72" width="9.5" height="23.5"/><path d="M388.74,23V46h-9V23h9m.5-.5h-10v24h10v-24Z"/><rect class="cls-1" x="392.49" y="22.72" width="9.5" height="23.5"/><path d="M401.74,23V46h-9V23h9m.5-.5h-10v24h10v-24Z"/><rect class="cls-1" x="405.49" y="22.72" width="9.5" height="23.5"/><path d="M414.74,23V46h-9V23h9m.5-.5h-10v24h10v-24Z"/><rect class="cls-1" x="366.49" y="56.72" width="9.5" height="23.5"/><path d="M375.74,57V80h-9V57h9m.5-.5h-10v24h10v-24Z"/><rect class="cls-1" x="379.49" y="56.72" width="9.5" height="23.5"/><path d="M388.74,57V80h-9V57h9m.5-.5h-10v24h10v-24Z"/><rect class="cls-1" x="392.49" y="56.72" width="9.5" height="23.5"/><path d="M401.74,57V80h-9V57h9m.5-.5h-10v24h10v-24Z"/><rect class="cls-1" x="405.49" y="56.72" width="9.5" height="23.5"/><path d="M414.74,57V80h-9V57h9m.5-.5h-10v24h10v-24Z"/><rect class="cls-1" x="366.49" y="90.72" width="9.5" height="23.5"/><path d="M375.74,91v23h-9V91h9m.5-.5h-10v24h10v-24Z"/><rect class="cls-1" x="379.49" y="90.72" width="9.5" height="23.5"/><path d="M388.74,91v23h-9V91h9m.5-.5h-10v24h10v-24Z"/><rect class="cls-1" x="392.49" y="90.72" width="9.5" height="23.5"/><path d="M401.74,91v23h-9V91h9m.5-.5h-10v24h10v-24Z"/><rect class="cls-1" x="405.49" y="90.72" width="9.5" height="23.5"/><path d="M414.74,91v23h-9V91h9m.5-.5h-10v24h10v-24Z"/></g></g></svg>