<svg id="bold" enable-background="new 0 0 24 24" height="512" viewBox="0 0 24 24" width="512" xmlns="http://www.w3.org/2000/svg"><path d="m21 1h-18c-1.654 0-3 1.346-3 3v16c0 1.654 1.346 3 3 3h18c1.654 0 3-1.346 3-3v-16c0-1.654-1.346-3-3-3zm0 20h-18c-.551 0-1-.448-1-1v-14h20v14c0 .552-.449 1-1 1z"/><path d="m11.729 16.484c-.834 0-1.665-.323-2.3-.958l-3.261-3.271c-.614-.607-.704-1.173-.704-2.043 0-.871.34-1.688.958-2.299 1.186-1.21 3.358-1.225 4.588.002l.31.311c.293.293.293.768 0 1.061-.294.293-.769.292-1.061 0l-.31-.31c-.657-.659-1.826-.657-2.463-.006-.34.335-.521.773-.521 1.24s.183.904.513 1.231l3.014 3.024c.639.639 1.646.69 2.344.119.317-.261.793-.216 1.055.105.263.321.216.793-.105 1.056-.604.494-1.332.738-2.057.738z"/><path d="m15.285 20.035c-.871 0-1.688-.34-2.299-.957l-.287-.288c-.292-.293-.292-.768.001-1.061s.77-.292 1.062.001l.289.29c.329.333.767.515 1.234.515.468 0 .904-.182 1.231-.512.336-.333.519-.77.519-1.237s-.182-.905-.513-1.232l-3.014-3.024c-.615-.615-1.682-.664-2.341-.121-.318.263-.791.219-1.056-.101-.264-.319-.219-.792.101-1.056 1.23-1.017 3.215-.925 4.357.218l3.011 3.021c.614.607.954 1.424.954 2.295s-.34 1.687-.958 2.297c-.603.611-1.42.952-2.291.952z"/></svg>